<svg viewBox="0 0 512 521" xmlns="http://www.w3.org/2000/svg"><path d="M480 46q4 0 7.5 3t3.5 7v406q0 4-3.5 7t-7.5 3H32q-4 0-7.5-3t-3.5-7V56q0-4 3.5-7t7.5-3h64q4 0 7.5 3t3.5 7.5q0 4.5-3.5 7.5T96 67H43v107h426V67h-53q-4 0-7.5-3t-3.5-7.5q0-4.5 3.5-7.5t7.5-3h64zM43 451h426V195H43v256zM181 67q-3 0-5-1.5t-3.5-4Q171 59 171 56q0-4 3-7t7-3h150q4 0 7 3t3 7.5q0 4.5-3 7.5t-7 3H181zm-35 39.5q-3 3.5-7.5 3.5t-7.5-3.5q-3-3.5-3-7.5V14q0-5 3-8t7.5-3q4.5 0 7.5 3t3 8v85q0 4-3 7.5zm235 0q-3 3.5-7.5 3.5t-7.5-3.5q-3-3.5-3-7.5V14q0-5 3-8t7.5-3q4.5 0 7.5 3t3 8v85q0 4-3 7.5z"/></svg>