<svg viewBox="0 0 512 521" xmlns="http://www.w3.org/2000/svg"><path d="M247 210q3-5 9-5 3 0 5 2 5 3 5 9 0 3-2 6l-52 73q-4 5-9 5-7 0-10-7-15-37-36-72l-42-16q-7-3-7-10v-13q0-4 2-6l17-26v-33q-2-3-4.5-6.5t-6-6.5q-3.5-3-7.5-5.5t-8-3.5l-8-2q-10 1-20 8t-14 16v33l17 26q2 2 2 6v15q0 6-5 9l-43 22q-9 4-9 14v100l20 39 2 4 9 118 1 1q0 10-10 11-9-1-10-10L22 389 1 349q-1-2-1-5V242q0-10 6.5-19.5T21 209l37-20v-4l-17-25q-2-3-2-6v-39q-1-1-1-2t1-2q6-15 22-26.5T93 72q17 1 33 12.5t22 26.5v43q0 3-2 6l-17 25v3l38 14q13 8 39 66l41-58zM501 3q10 1 10 11v490q0 5-3 8t-7.5 3q-4.5 0-7.5-3t-3-8V233q-14-6-59-27-6-3-6-10v-14q0-3 2-6l18-25v-33q-4-10-14-17t-20-7q-10 1-20 8t-14 16v33l17 25q2 3 2 6v14q0 6-5 9l-40 24q-10 4-10 15v98l21 41q0 2 1 4l9 116 1 1q0 10-10 11-9-1-10-10l-10-115-22-41q-1-2-1-5V244q0-10 6.5-20t14.5-14l36-20v-5l-17-25q-2-2-2-6v-39-1.5-1.5q4-10 13-19t20-14.5q11-5.5 22-5.5 8 0 16.5 3.5T445 85q7 5 13 12t9 15v42q0 3-2 6l-17 25v4l43 21V24H299v96q0 5-3.5 8t-7.5 3q-3 0-5.5-1.5t-4-4Q277 123 277 120V14q0-5 3.5-8t7.5-3h213zM161 376q10 1 10 11v1l-11 117q-1 10-11 10t-10-11l10-117q1-11 12-11z"/></svg>