<svg viewBox="0 0 512 521" xmlns="http://www.w3.org/2000/svg"><path d="M381 494q-4 0-7.5-3.5T370 483q0-3 2-6l66-90H75l66 90q2 3 2 6 0 5-5 9-3 2-6 2-6 0-9-5L46 383q-2-3-2-7 0-2 1-5 2-5 8-5h406q6 0 9 5 1 3 1 5 0 4-2 7l-77 106q-4 5-9 5zM256 344q-4 0-7.5-3t-3.5-7v-71q0-4 3.5-7t7.5-3q4 0 7.5 3t3.5 7v71q0 2-1 4t-2.5 3.5q-1.5 1.5-3.5 2t-4 .5zm146-4q-3 3-7.5 3t-7.5-3q-3-3-3-8v-52l-99-51q-5-3-5-9v-25q0-3 1-6l32-46V83q-8-14-24.5-25T256 46q-16 1-32.5 12T199 83v60l32 45q1 3 1 6v25q0 6-5 9l-99 52v53q0 4-3 7.5t-7.5 3.5q-4.5 0-7.5-3.5t-3-7.5v-60q0-7 5-10l99-51v-14l-31-46q-2-2-2-6V80q0-3 1-5 3-6 9.5-15t26-22.5Q234 24 256 24q46 0 76 51 2 2 2 5v66q0 3-2 6l-31 46v14l99 51q5 3 5 10v59q0 5-3 8z"/></svg>